<?xml version="1.0" standalone="no"?>
<!DOCTYPE svg PUBLIC "-//W3C//DTD SVG 20010904//EN"
 "http://www.w3.org/TR/2001/REC-SVG-20010904/DTD/svg10.dtd">
<svg version="1.0" xmlns="http://www.w3.org/2000/svg"
 width="700.000000pt" height="700.000000pt" viewBox="0 0 700.000000 700.000000"
 preserveAspectRatio="xMidYMid meet">
<metadata>
Created by potrace 1.11, written by Peter Selinger 2001-2013
</metadata>
<g transform="translate(0.000000,700.000000) scale(0.100000,-0.100000)"
fill="#000000" stroke="none">
<path d="M3320 6704 c-19 -2 -73 -9 -120 -15 -521 -63 -1021 -317 -1391 -707
-346 -364 -566 -832 -624 -1329 -116 -989 397 -1930 1290 -2369 219 -108 374
-156 713 -220 l22 -4 0 -589 0 -590 -467 -3 c-364 -3 -476 -7 -503 -18 -99
-38 -170 -119 -191 -218 -22 -107 21 -222 109 -289 87 -66 21 -63 1342 -63
1321 0 1255 -3 1342 63 184 140 139 422 -82 507 -27 11 -139 15 -502 18 l-468
3 0 590 0 589 23 4 c338 64 493 112 712 220 800 393 1305 1198 1305 2082 0
268 -37 502 -117 748 -54 163 -173 408 -268 550 -369 553 -946 920 -1605 1021
-100 15 -446 28 -520 19z m514 -613 c272 -56 538 -181 756 -356 219 -176 421
-448 520 -700 95 -243 124 -399 124 -660 0 -262 -31 -423 -125 -660 -153 -382
-463 -717 -839 -905 -130 -65 -267 -112 -452 -154 l-28 -6 0 217 0 218 409
410 c281 281 416 424 432 455 14 29 24 70 27 116 8 126 -54 226 -176 282 -46
21 -65 24 -126 20 -46 -3 -87 -13 -116 -28 -28 -14 -120 -97 -247 -223 l-203
-201 0 400 c0 451 -1 458 -72 539 -61 70 -126 99 -218 99 -92 0 -157 -29 -218
-99 -71 -81 -72 -88 -72 -538 l0 -400 -208 205 c-186 184 -214 207 -267 227
-145 55 -296 -4 -364 -141 -25 -50 -31 -73 -31 -127 0 -124 3 -128 461 -586
l409 -410 0 -218 c0 -127 -4 -217 -9 -217 -27 0 -252 64 -329 94 -794 306
-1253 1149 -1081 1986 45 220 157 478 286 660 84 117 290 325 401 404 221 157
462 257 737 307 145 27 465 21 619 -10z"/>
</g>
</svg>
